<svg width="517" height="507" viewBox="0 0 517 507" fill="none" xmlns="http://www.w3.org/2000/svg">
<mask id="mask0" mask-type="alpha" maskUnits="userSpaceOnUse" x="0" y="0" width="517" height="507">
<path d="M517 253.5C517 393.504 403.504 507 263.5 507C123.496 507 0 383.504 0 243.5C0 103.496 123.496 0 263.5 0C403.504 0 517 113.496 517 253.5Z" fill="#C4C4C4"/>
</mask>
<g mask="url(#mask0)">
<ellipse cx="247.777" cy="263.664" rx="217" ry="208.5" stroke="url(#paint0_linear)" stroke-opacity="0.5" stroke-width="2" stroke-linecap="round" stroke-linejoin="round" stroke-dasharray="12 12"/>
<path d="M70.6482 348.433C91.4223 344.834 105.345 325.076 101.746 304.302C98.1474 283.527 78.389 269.604 57.6149 273.203C36.8408 276.802 22.9176 296.561 26.5167 317.335C30.1157 338.109 49.8741 352.032 70.6482 348.433Z" fill="#17A3DC"/>
<g opacity="0.805083">
<g opacity="0.805083" filter="url(#filter0_d)">
<path d="M69.2903 340.596C85.7365 337.747 96.759 322.105 93.9098 305.659C91.0605 289.213 75.4185 278.19 58.9723 281.039C42.5261 283.889 31.5036 299.531 34.3529 315.977C37.2021 332.423 52.8441 343.446 69.2903 340.596Z" fill="white" fill-opacity="0.201513"/>
</g>
<path opacity="0.805083" d="M69.2903 340.596C85.7365 337.747 96.759 322.105 93.9098 305.659C91.0605 289.213 75.4185 278.19 58.9723 281.039C42.5261 283.889 31.5036 299.531 34.3529 315.977C37.2021 332.423 52.8441 343.446 69.2903 340.596Z" fill="white" fill-opacity="0.201513"/>
</g>
<path d="M82.1109 319.474C82.7905 319.356 83.4368 319.811 83.5545 320.491L84.1239 323.778C84.3978 325.359 83.3374 326.862 81.7555 327.136L78.4678 327.706C77.7882 327.824 77.142 327.369 77.0243 326.689C76.9066 326.01 77.3621 325.364 78.0416 325.246L81.3293 324.677C81.5523 324.638 81.7016 324.426 81.6631 324.204L81.0936 320.917C80.9759 320.238 81.4314 319.591 82.1109 319.474ZM50.1013 325.019C50.7808 324.902 51.4271 325.357 51.5448 326.036L52.1143 329.323C52.1528 329.546 52.3646 329.695 52.5876 329.656L55.8753 329.086C56.5549 328.969 57.2011 329.424 57.3188 330.103C57.4365 330.782 56.981 331.429 56.3015 331.546L53.0137 332.116C51.4318 332.39 49.9273 331.331 49.6534 329.749L49.084 326.462C48.9663 325.783 49.4218 325.137 50.1013 325.019ZM75.7931 292.662C77.375 292.388 78.8795 293.448 79.1534 295.029L79.7229 298.316C79.8405 298.995 79.3851 299.641 78.7055 299.759C78.026 299.877 77.3797 299.421 77.262 298.742L76.6925 295.455C76.654 295.233 76.4422 295.084 76.2192 295.122L72.9315 295.692C72.252 295.809 71.6057 295.354 71.488 294.675C71.3703 293.996 71.8258 293.35 72.5053 293.232L75.7931 292.662ZM50.3543 297.061C51.0339 296.944 51.6801 297.399 51.7978 298.078C51.9155 298.757 51.46 299.404 50.7805 299.521L47.4927 300.091C47.2698 300.13 47.1205 300.341 47.159 300.564L47.7285 303.851C47.8462 304.53 47.3907 305.176 46.7111 305.294C46.0316 305.411 45.3853 304.956 45.2676 304.277L44.6982 300.99C44.4243 299.409 45.4847 297.905 47.0666 297.631L50.3543 297.061Z" fill="white" fill-opacity="0.497705"/>
<path d="M56.5991 306.045C55.964 302.379 58.3639 298.902 61.9594 298.28C65.5549 297.657 68.9845 300.124 69.6196 303.79C70.062 306.343 69.0302 308.872 67.0431 310.357L67.4017 311.543C71.3842 312.204 74.607 315.374 75.3242 319.514L75.5798 320.989C75.6503 321.397 75.3837 321.783 74.9842 321.852L57.6235 324.86C57.224 324.929 56.8429 324.655 56.7723 324.248L56.5168 322.773C55.7995 318.633 57.7682 314.563 61.296 312.601L61.2347 311.363C58.8639 310.633 57.0415 308.599 56.5991 306.045Z" fill="white"/>
<path d="M275.685 98.7463C296.459 95.1473 310.382 75.3889 306.783 54.6148C303.184 33.8406 283.426 19.9175 262.651 23.5165C241.877 27.1156 227.954 46.874 231.553 67.6481C235.152 88.4222 254.911 102.345 275.685 98.7463Z" fill="#17A3DC"/>
<g opacity="0.94694">
<g opacity="0.94694" filter="url(#filter1_d)">
<path d="M274.327 90.9098C290.774 88.0606 301.796 72.4186 298.947 55.9724C296.098 39.5262 280.456 28.5037 264.009 31.3529C247.563 34.2022 236.541 49.8442 239.39 66.2904C242.239 82.7366 257.881 93.7591 274.327 90.9098Z" fill="#3BB0E0"/>
</g>
<path opacity="0.94694" d="M274.327 90.9098C290.774 88.0606 301.796 72.4186 298.947 55.9724C296.098 39.5262 280.456 28.5037 264.009 31.3529C247.563 34.2022 236.541 49.8442 239.39 66.2904C242.239 82.7366 257.881 93.7591 274.327 90.9098Z" fill="#3BB0E0"/>
</g>
<path fill-rule="evenodd" clip-rule="evenodd" d="M251.268 57.7641L283.373 52.2021C283.834 52.1223 284.272 52.4312 284.352 52.892L286.954 67.9116C287.034 68.3725 286.725 68.8108 286.264 68.8906L254.159 74.4526C252.765 74.6941 251.44 73.7598 251.198 72.3658L249.181 60.7255C248.94 59.3315 249.874 58.0056 251.268 57.7641Z" fill="url(#paint1_linear)"/>
<path d="M278.673 57.3135L280.841 69.8298L289.185 68.3842L287.017 55.8679L278.673 57.3135ZM279.688 52.8402L286.642 51.6355C287.815 51.4322 288.525 52.1717 288.75 53.4678L291.263 67.9754C291.488 69.2715 291.068 70.2067 289.894 70.41L282.941 71.6147C281.767 71.818 281.057 71.0785 280.833 69.7824L278.319 55.2748C278.095 53.9787 278.515 53.0435 279.688 52.8402Z" fill="white"/>
<path fill-rule="evenodd" clip-rule="evenodd" d="M278.31 55.2275L280.84 69.8299L291.27 68.0229L288.74 53.4205L278.31 55.2275Z" fill="#17A3DC"/>
<path d="M286.508 71.5366C287.373 71.3867 287.954 70.5634 287.804 69.6978C287.654 68.8322 286.83 68.2521 285.965 68.4021C285.099 68.552 284.519 69.3753 284.669 70.2409C284.819 71.1065 285.642 71.6866 286.508 71.5366Z" fill="#EDEEF3"/>
<path fill-rule="evenodd" clip-rule="evenodd" d="M253.319 66.0035L255.405 65.6421C258.285 65.1431 261.024 67.0735 261.523 69.9537L262.128 73.4448C262.293 74.397 261.655 75.3026 260.703 75.4675L251.635 77.0386C250.682 77.2036 249.777 76.5654 249.612 75.6133L249.007 72.1221C248.508 69.2419 250.438 66.5025 253.319 66.0035Z" fill="white"/>
<path d="M254.361 65.8228C256.666 65.4236 258.21 63.2321 257.811 60.9279C257.411 58.6237 255.22 57.0794 252.916 57.4786C250.612 57.8778 249.067 60.0693 249.466 62.3735C249.866 64.6777 252.057 66.222 254.361 65.8228Z" fill="#CCF0FF"/>
<path d="M269.373 58.5813C272.161 58.0983 274.029 55.4465 273.546 52.6584C273.063 49.8704 270.412 48.0018 267.623 48.4848C264.835 48.9678 262.967 51.6196 263.45 54.4076C263.933 57.1957 266.585 59.0643 269.373 58.5813Z" fill="white" fill-opacity="0.139942" stroke="white" stroke-width="1.05857"/>
<path fill-rule="evenodd" clip-rule="evenodd" d="M266.643 55.5086C267.164 55.8231 267.871 55.6879 268.239 55.2037C268.618 54.7058 268.527 54.0194 268.053 53.6362L269.298 51.9334L269.784 52.2634L269.899 52.1053L269.414 51.7754L269.645 51.4594L270.13 51.7891L270.246 51.6312L269.76 51.3014L270.02 50.9458L270.506 51.2757L270.622 51.1176L269.974 50.6779L267.891 53.5264C267.363 53.2287 266.672 53.3696 266.309 53.8658C265.914 54.406 266.061 55.1579 266.643 55.5086Z" fill="white"/>
<path fill-rule="evenodd" clip-rule="evenodd" d="M267.282 54.9928C267.317 54.9015 267.299 54.7956 267.235 54.7216C267.089 54.5528 266.814 54.6004 266.733 54.8084C266.698 54.8998 266.716 55.0056 266.78 55.0797C266.926 55.2485 267.201 55.2009 267.282 54.9928Z" fill="white"/>
<path d="M153.878 132.017C174.652 128.418 188.575 108.66 184.976 87.8858C181.377 67.1116 161.619 53.1885 140.845 56.7875C120.071 60.3866 106.148 80.145 109.747 100.919C113.346 121.693 133.104 135.616 153.878 132.017Z" fill="#17A3DC"/>
<g opacity="0.805083">
<g opacity="0.805083" filter="url(#filter2_d)">
<path d="M152.52 124.181C168.966 121.332 179.989 105.69 177.14 89.2436C174.29 72.7974 158.648 61.7749 142.202 64.6242C125.756 67.4734 114.734 83.1155 117.583 99.5616C120.432 116.008 136.074 127.03 152.52 124.181Z" fill="#4FB7E2"/>
</g>
</g>
<path d="M164.373 101.747L161.63 102.222L159.051 87.3327L161.794 86.8575L161.183 83.3311L130.817 88.592L131.427 92.1184L133.582 91.745L136.162 106.634L134.007 107.008L134.584 110.338L132.625 110.677L133.236 114.204L167.324 108.298L166.713 104.772L164.95 105.077L164.373 101.747Z" fill="#E5F6FC"/>
<path d="M162.166 78.5196L144.375 77.1624L128.077 84.4253L128.688 87.9517L162.777 82.0459L162.166 78.5196Z" fill="#F9FDFF"/>
<path fill-rule="evenodd" clip-rule="evenodd" d="M147.133 104.733L144.554 89.8442L148.276 89.1994L150.856 104.089L147.133 104.733Z" fill="#17A3DC"/>
<path fill-rule="evenodd" clip-rule="evenodd" d="M158.104 102.833L154.382 103.478L151.802 88.5884L155.525 87.9435L158.104 102.833Z" fill="#17A3DC"/>
<path fill-rule="evenodd" clip-rule="evenodd" d="M137.109 91.134L140.831 90.4892L143.411 105.378L139.688 106.023L137.109 91.134Z" fill="#17A3DC"/>
<path d="M70.7258 220.261C91.4999 216.662 105.423 196.903 101.824 176.129C98.225 155.355 78.4666 141.432 57.6925 145.031C36.9184 148.63 22.9952 168.388 26.5943 189.162C30.1933 209.937 49.9517 223.86 70.7258 220.261Z" fill="#17A3DC"/>
<g opacity="0.805083">
<g opacity="0.805083" filter="url(#filter3_d)">
<path d="M69.3675 212.424C85.8137 209.575 96.8362 193.933 93.9869 177.487C91.1377 161.041 75.4956 150.018 59.0494 152.868C42.6033 155.717 31.5808 171.359 34.43 187.805C37.2793 204.251 52.9213 215.274 69.3675 212.424Z" fill="#39AFE0"/>
</g>
<path opacity="0.805083" d="M69.3675 212.424C85.8137 209.575 96.8362 193.933 93.9869 177.487C91.1377 161.041 75.4956 150.018 59.0494 152.868C42.6033 155.717 31.5808 171.359 34.43 187.805C37.2793 204.251 52.9213 215.274 69.3675 212.424Z" fill="#39AFE0"/>
</g>
<path opacity="0.525972" d="M49.015 177.537C53.2235 169.964 58.6707 164.668 64.3567 164.863C70.2128 165.063 74.6595 167.815 76.8291 175.7" stroke="white" stroke-width="0.95438" stroke-linecap="round" stroke-linejoin="round" stroke-dasharray="1.59 3.18"/>
<path opacity="0.525972" d="M51.6953 193.005C57.2494 198.381 63.4743 201.71 68.7634 199.615C74.2109 197.456 79.1158 193.534 78.5063 185.378" stroke="white" stroke-width="0.95438" stroke-linecap="round" stroke-linejoin="round" stroke-dasharray="1.59 3.18"/>
<mask id="mask1" mask-type="alpha" maskUnits="userSpaceOnUse" x="59" y="168" width="26" height="27">
<path d="M73.7428 192.427C79.647 191.404 83.5774 185.634 82.5215 179.54C81.4656 173.445 75.8233 169.333 69.9191 170.356C64.0148 171.379 60.0845 177.149 61.1404 183.244C62.1963 189.339 67.8386 193.45 73.7428 192.427Z" fill="white"/>
</mask>
<g mask="url(#mask1)">
<path d="M73.7428 192.427C79.647 191.404 83.5774 185.634 82.5215 179.54C81.4656 173.445 75.8233 169.333 69.9191 170.356C64.0148 171.379 60.0845 177.149 61.1404 183.244C62.1963 189.339 67.8386 193.45 73.7428 192.427Z" fill="#36A0CB"/>
<g opacity="0.499512">
<g opacity="0.499512">
<g opacity="0.499512">
<path opacity="0.499512" d="M75.4858 177.797L76.0156 180.855C76.0233 180.9 76.0297 180.944 76.0362 180.988C76.042 181.025 76.0469 181.06 76.0509 181.097C76.0558 181.129 76.0591 181.162 76.0618 181.194C76.0646 181.218 76.0663 181.241 76.0686 181.265C76.0699 181.279 76.0709 181.292 76.0717 181.307C76.0737 181.332 76.0765 181.359 76.0762 181.385C76.0805 181.433 76.0829 181.482 76.0837 181.532C76.0847 181.544 76.0849 181.556 76.0847 181.569C76.086 181.593 76.0861 181.618 76.0863 181.643L76.0868 181.646C76.0864 181.682 76.0865 181.717 76.0863 181.754C76.0853 181.804 76.0844 181.853 76.0822 181.903C76.0813 181.905 76.0817 181.907 76.0815 181.909C76.0815 181.916 76.0816 181.923 76.0811 181.931C76.0803 181.933 76.0806 181.935 76.0798 181.937C76.0791 181.964 76.0776 181.99 76.0757 182.017C76.0753 182.028 76.0754 182.04 76.0733 182.051C76.0729 182.07 76.0708 182.089 76.0698 182.108C76.0688 182.119 76.0689 182.13 76.066 182.141C76.0658 182.15 76.0645 182.159 76.0635 182.168C76.0563 182.254 76.0454 182.339 76.0337 182.424C76.0275 182.464 76.0218 182.504 76.0151 182.544C76.0146 182.549 76.0135 182.552 76.013 182.557C76.0068 182.593 75.9999 182.63 75.9937 182.666C75.9913 182.676 75.989 182.688 75.9869 182.699C75.9797 182.734 75.973 182.768 75.9653 182.802C75.9563 182.844 75.9467 182.885 75.9371 182.926C75.9285 182.963 75.9188 183 75.9096 183.037C75.9083 183.043 75.9063 183.049 75.905 183.055C75.8938 183.094 75.8838 183.134 75.872 183.172C75.861 183.212 75.8488 183.253 75.8355 183.293C75.8116 183.373 75.7838 183.454 75.756 183.531L75.717 183.638C75.6046 183.932 75.4714 184.213 75.3198 184.478C75.2994 184.515 75.2782 184.552 75.2558 184.588C75.2253 184.64 75.194 184.691 75.1621 184.741C75.1338 184.785 75.1056 184.829 75.0754 184.873C74.9947 184.994 74.9106 185.11 74.8233 185.22C74.8064 185.244 74.7882 185.266 74.7693 185.288C74.7399 185.326 74.7103 185.362 74.6787 185.397C74.6556 185.427 74.6306 185.455 74.6055 185.482C74.5414 185.555 74.477 185.625 74.4108 185.691C74.384 185.72 74.3559 185.748 74.3276 185.774C74.2822 185.82 74.2359 185.863 74.1888 185.905C74.1631 185.929 74.1366 185.953 74.1093 185.975C74.0151 186.056 73.919 186.133 73.8225 186.201C73.7993 186.219 73.7752 186.236 73.7518 186.253C73.7283 186.269 73.7031 186.286 73.6773 186.303C73.6462 186.323 73.6144 186.343 73.583 186.363C73.5701 186.371 73.5576 186.378 73.545 186.385C73.5076 186.407 73.469 186.43 73.4312 186.45C73.3838 186.477 73.3347 186.501 73.2866 186.523C73.2535 186.539 73.2191 186.555 73.1851 186.569C73.1835 186.571 73.1813 186.572 73.1784 186.572C73.1444 186.586 73.1109 186.6 73.0771 186.612C73.0682 186.616 73.0592 186.62 73.0501 186.622C73.022 186.633 72.994 186.643 72.9656 186.651C72.9254 186.664 72.8849 186.676 72.844 186.685C72.83 186.69 72.8167 186.693 72.8023 186.695C72.7697 186.703 72.7369 186.71 72.7049 186.716L72.7017 186.716C72.6699 186.722 72.6377 186.726 72.6052 186.729C72.5929 186.732 72.5803 186.733 72.5676 186.733C72.5386 186.737 72.5081 186.739 72.4764 186.74C72.4703 186.741 72.463 186.742 72.4566 186.742C72.4175 186.743 72.3783 186.744 72.338 186.744C72.3041 186.744 72.2698 186.743 72.2343 186.741C72.0511 186.732 71.8594 186.704 71.6621 186.657C71.4936 186.617 71.3206 186.562 71.1465 186.496C71.0589 186.462 70.9708 186.426 70.8831 186.386C70.8391 186.365 70.7953 186.345 70.7512 186.324C70.6132 186.257 70.475 186.183 70.3376 186.101C70.2996 186.078 70.2616 186.054 70.2233 186.03C70.1853 186.007 70.147 185.982 70.1099 185.958C70.0164 185.896 69.9245 185.832 69.834 185.764C69.7987 185.738 69.7632 185.711 69.7275 185.683C69.6293 185.606 69.5327 185.527 69.4394 185.442C69.4035 185.413 69.3693 185.381 69.3352 185.35C69.2077 185.233 69.0843 185.109 68.9661 184.979C68.9346 184.945 68.9029 184.909 68.8723 184.874C68.8353 184.832 68.799 184.788 68.7628 184.744C68.6284 184.581 68.5009 184.41 68.3848 184.23C68.3675 184.204 68.3503 184.178 68.335 184.151C68.3123 184.118 68.2914 184.083 68.2717 184.049C68.2418 184 68.213 183.95 68.1852 183.9C68.1574 183.849 68.1305 183.798 68.1034 183.747C68.0779 183.697 68.0534 183.648 68.0297 183.597C68.0034 183.543 67.9781 183.489 67.9545 183.433C67.9525 183.427 67.9492 183.421 67.9472 183.416C67.9138 183.339 67.8821 183.26 67.8523 183.18C67.8128 183.075 67.7773 182.968 67.7456 182.858C67.7343 182.824 67.725 182.789 67.7159 182.755C67.7054 182.718 67.696 182.682 67.6874 182.645C67.6706 182.579 67.6556 182.511 67.6418 182.443C67.6331 182.399 67.6243 182.355 67.6166 182.31L67.0868 179.252C66.6952 176.992 68.256 174.834 70.5733 174.431L70.5776 174.43C70.8972 174.375 71.2151 174.356 71.525 174.369C71.809 174.382 72.0871 174.423 72.3558 174.49C72.722 174.579 73.0717 174.716 73.3958 174.895C73.6682 175.044 73.9233 175.222 74.1544 175.426C74.8257 176.018 75.3086 176.823 75.4783 177.761C75.4816 177.773 75.4836 177.785 75.4858 177.797Z" fill="white"/>
<path opacity="0.499512" d="M79.2651 192.051L79.2652 192.051L68.3226 193.947L68.3222 193.946C68.2178 193.343 68.2194 192.746 68.3156 192.172C68.3328 192.07 68.3531 191.966 68.377 191.864L68.3768 191.863C68.3994 191.76 68.4264 191.659 68.4558 191.559C68.5719 191.157 68.7368 190.771 68.9427 190.408C68.9949 190.317 69.0485 190.227 69.1047 190.141C69.1321 190.097 69.1618 190.054 69.1914 190.01C69.2212 189.968 69.2512 189.925 69.2818 189.882C69.4354 189.67 69.6048 189.472 69.7869 189.283C69.878 189.19 69.971 189.101 70.0685 189.014C70.1662 188.928 70.2664 188.844 70.3695 188.764C70.3712 188.762 70.3732 188.761 70.3732 188.761C70.4135 188.73 70.4525 188.698 70.4913 188.664C70.6072 188.566 70.7165 188.461 70.818 188.349C71.2494 187.876 71.5452 187.291 71.6618 186.657C71.7312 186.278 71.7359 185.883 71.6666 185.483L72.4645 185.349L73.2851 185.211C73.3536 185.606 73.4884 185.973 73.6772 186.303C73.9973 186.863 74.4727 187.317 75.0382 187.619C75.1223 187.665 75.2072 187.707 75.2957 187.744C75.3048 187.748 75.3127 187.752 75.3223 187.756C75.3636 187.774 75.4044 187.792 75.4477 187.807C75.4945 187.824 75.5419 187.843 75.5893 187.858C75.5967 187.859 75.6036 187.861 75.6095 187.864C75.7087 187.897 75.8076 187.933 75.9045 187.971C75.9507 187.989 75.9976 188.008 76.0439 188.03C76.1391 188.068 76.2323 188.112 76.3247 188.159C76.3248 188.159 76.326 188.159 76.326 188.159L76.3265 188.159C76.4442 188.216 76.5592 188.28 76.6722 188.345C76.7858 188.41 76.8955 188.48 77.0028 188.554C78.1644 189.347 79.0093 190.574 79.2651 192.051Z" fill="white"/>
<path opacity="0.499512" d="M79.2648 192.05L68.3222 193.946C68.2179 193.343 68.2194 192.745 68.3157 192.172C68.3328 192.069 68.3533 191.966 68.3769 191.863L68.3767 191.862C68.3994 191.76 68.4265 191.659 68.4558 191.558C68.572 191.156 68.7367 190.77 68.9427 190.407C68.9949 190.316 69.0487 190.227 69.1048 190.141C69.1321 190.097 69.1618 190.053 69.1915 190.01C69.2213 189.967 69.2512 189.925 69.2821 189.882C69.4354 189.67 69.6049 189.471 69.7869 189.283C69.8782 189.19 69.971 189.101 70.0686 189.014C70.1192 188.969 70.17 188.925 70.2219 188.881C70.2702 188.841 70.3196 188.801 70.3693 188.763C70.3711 188.76 70.3732 188.761 70.3732 188.761L70.3731 188.76C70.4132 188.728 70.4524 188.697 70.4913 188.664C70.607 188.565 70.7162 188.459 70.8156 188.347C70.8168 188.348 70.8168 188.348 70.818 188.348C71.4448 188.789 72.2458 188.991 73.0713 188.85L73.0796 188.848C73.9047 188.705 74.5942 188.244 75.0379 187.618L75.0389 187.617C75.1224 187.663 75.2081 187.706 75.2954 187.743C75.3051 187.748 75.313 187.752 75.322 187.756C75.3633 187.773 75.4057 187.79 75.4474 187.806C75.4942 187.824 75.5419 187.841 75.5889 187.857C75.5968 187.857 75.6027 187.86 75.609 187.862C75.6624 187.88 75.7165 187.898 75.7689 187.918C75.8144 187.935 75.8598 187.953 75.9042 187.971C75.951 187.988 75.9979 188.007 76.0442 188.029C76.1388 188.068 76.2326 188.112 76.3244 188.158L76.3267 188.158C76.4439 188.216 76.5599 188.278 76.6724 188.344C76.7855 188.41 76.8958 188.48 77.0031 188.553C78.1641 189.346 79.009 190.574 79.2648 192.05Z" fill="#5630FF"/>
<path opacity="0.499512" d="M76.0157 180.855C76.0233 180.9 76.0298 180.944 76.0363 180.988C76.0421 181.025 76.0469 181.06 76.0509 181.097C76.0559 181.129 76.0592 181.162 76.0618 181.194C76.0647 181.218 76.0664 181.242 76.0687 181.265C76.0699 181.279 76.071 181.292 76.0718 181.307C76.0738 181.332 76.0766 181.359 76.0762 181.385C76.0794 181.434 76.0831 181.483 76.0838 181.532C76.0847 181.544 76.085 181.556 76.0848 181.569C76.0861 181.593 76.0862 181.618 76.0863 181.643C76.0873 181.68 76.0866 181.717 76.0863 181.754C76.0856 181.798 76.084 181.84 76.0824 181.883C76.0828 181.892 76.0819 181.9 76.0815 181.909C76.0816 181.916 76.0805 181.923 76.0806 181.931C76.0803 181.933 76.0806 181.935 76.0799 181.937C76.0808 181.943 76.0803 181.947 76.0799 181.951C76.0788 181.973 76.0778 181.995 76.0757 182.017C76.0753 182.028 76.0755 182.04 76.0733 182.052C76.0721 182.072 76.0708 182.092 76.0677 182.112C76.0682 182.122 76.0679 182.131 76.0661 182.141C76.0658 182.15 76.0645 182.16 76.0636 182.168C76.0564 182.254 76.0454 182.339 76.0337 182.424C76.0276 182.464 76.0219 182.504 76.0151 182.544C76.0147 182.549 76.0135 182.552 76.0131 182.557C76.0068 182.593 76 182.63 75.9937 182.666C75.9914 182.677 75.9891 182.688 75.987 182.699C75.9797 182.734 75.9731 182.768 75.9653 182.803C75.9564 182.844 75.9468 182.885 75.9371 182.926C75.9286 182.963 75.9188 183 75.9097 183.037C75.9083 183.043 75.9063 183.049 75.905 183.055C75.8938 183.094 75.8839 183.134 75.872 183.172C75.8611 183.212 75.8489 183.253 75.8356 183.293C75.8117 183.373 75.7838 183.454 75.756 183.532L75.7171 183.638C75.6047 183.932 75.4715 184.213 75.3199 184.478C75.2995 184.515 75.2783 184.552 75.2558 184.588C75.2253 184.64 75.1941 184.691 75.1621 184.741C75.1338 184.785 75.1056 184.829 75.0755 184.873C74.9947 184.994 74.9107 185.11 74.8234 185.22C74.8065 185.244 74.7882 185.266 74.7694 185.288C74.7399 185.326 74.7103 185.362 74.6788 185.397C74.6557 185.427 74.6307 185.455 74.6056 185.483C74.5415 185.555 74.4771 185.625 74.4109 185.692C74.3841 185.72 74.356 185.748 74.3277 185.774C74.2823 185.82 74.236 185.863 74.1888 185.905C74.1631 185.93 74.1366 185.953 74.1093 185.975C74.0152 186.056 73.9191 186.133 73.8226 186.201C73.7993 186.219 73.7753 186.236 73.7519 186.253C73.7283 186.269 73.7031 186.286 73.6774 186.303C73.6463 186.324 73.6144 186.343 73.5831 186.363C73.5701 186.371 73.5577 186.378 73.545 186.385C73.5077 186.407 73.4691 186.43 73.4313 186.45C73.3839 186.477 73.3348 186.501 73.2867 186.523C73.2535 186.539 73.2191 186.555 73.1851 186.569C73.1836 186.571 73.1814 186.572 73.1785 186.572C73.1444 186.586 73.111 186.601 73.0772 186.612C73.0683 186.616 73.0593 186.62 73.0502 186.622C73.022 186.633 72.994 186.643 72.9657 186.651C72.9254 186.664 72.885 186.676 72.844 186.685C72.83 186.69 72.8168 186.693 72.8023 186.695C72.7697 186.703 72.7369 186.71 72.7049 186.716L72.7018 186.716C72.6699 186.722 72.6377 186.726 72.6053 186.729C72.5929 186.732 72.5804 186.733 72.5677 186.733C72.5387 186.737 72.5082 186.739 72.4765 186.74C72.4703 186.741 72.463 186.742 72.4566 186.742C72.4176 186.743 72.3783 186.744 72.338 186.744C72.3041 186.745 72.2699 186.743 72.2344 186.741C72.0511 186.732 71.8594 186.704 71.6621 186.657C71.4937 186.617 71.3207 186.563 71.1466 186.496C71.0592 186.463 70.9719 186.426 70.8831 186.386C70.8392 186.365 70.7953 186.345 70.7513 186.324C70.6132 186.257 70.4751 186.183 70.3377 186.101C70.2996 186.078 70.2616 186.054 70.2233 186.03C70.1853 186.007 70.1471 185.982 70.11 185.958C70.0164 185.897 69.9246 185.832 69.834 185.764C69.7988 185.738 69.7633 185.711 69.7275 185.683C69.6294 185.606 69.5327 185.527 69.4395 185.442C69.4035 185.413 69.3693 185.381 69.3353 185.35C69.2077 185.233 69.0844 185.109 68.9662 184.979C68.9347 184.945 68.9029 184.909 68.8724 184.874C68.8354 184.832 68.7991 184.788 68.7629 184.744C68.6285 184.582 68.501 184.41 68.3849 184.23C68.3675 184.204 68.3503 184.178 68.3351 184.151C68.3124 184.118 68.2915 184.084 68.2717 184.049C68.2419 184 68.2131 183.95 68.1853 183.9C68.1574 183.849 68.1305 183.799 68.1035 183.747C68.078 183.698 68.0535 183.648 68.0298 183.597C68.0034 183.544 67.9781 183.489 67.9546 183.433C67.9526 183.427 67.9493 183.421 67.9473 183.416C67.9139 183.339 67.8821 183.26 67.8524 183.18C67.8129 183.075 67.7773 182.968 67.7457 182.858C67.7343 182.824 67.7251 182.789 67.716 182.755C67.7055 182.718 67.696 182.682 67.6875 182.645C67.6707 182.579 67.6557 182.511 67.6418 182.443C67.6332 182.399 67.6243 182.355 67.6167 182.311L68.5098 183.48L69.7469 183.77L71.1299 183.653L71.1309 183.653L72.1562 183.568L72.1625 183.567L73.1213 183.487C73.1213 183.487 73.1212 183.486 73.1225 183.486L75.2618 183.307L76.0157 180.855Z" fill="#1D2C40"/>
<g opacity="0.499512">
<path opacity="0.499512" d="M71.9325 182.228L72.1032 183.218L72.1033 183.219L72.1625 183.567L72.2097 183.839L72.3655 184.744L72.3656 184.746L72.3645 184.745L72.3635 184.745L72.36 184.743L67.9543 183.433C67.9523 183.427 67.9491 183.421 67.947 183.415C67.9135 183.338 67.8819 183.26 67.8521 183.18C67.8127 183.075 67.777 182.967 67.7453 182.858C67.734 182.823 67.7248 182.789 67.7157 182.754C67.7052 182.717 67.6958 182.682 67.6872 182.645C67.6704 182.578 67.6555 182.511 67.6415 182.443C67.6328 182.398 67.6241 182.354 67.6164 182.31L67.4082 181.108C67.4112 181.126 67.4151 181.142 67.4181 181.159C67.4767 181.449 67.5795 181.76 67.7279 182.071C67.8427 182.31 67.9716 182.527 68.1107 182.717L68.1109 182.718C68.4761 183.219 68.9027 183.528 69.2462 183.531C69.2674 183.53 69.2893 183.529 69.3103 183.527C69.4417 183.519 69.5782 183.503 69.7174 183.479C70.2436 183.388 70.6393 182.895 70.9043 182.677C70.9063 182.676 70.9081 182.674 70.91 182.673C70.9239 182.661 70.9378 182.649 70.9497 182.638C70.9533 182.634 70.9571 182.632 70.9609 182.629C71.1845 182.448 71.5263 182.299 71.9242 182.229L71.9325 182.228L71.9325 182.228Z" fill="#1D2C40"/>
<path opacity="0.499512" d="M75.8084 179.653L76.0154 180.855C76.0677 181.157 76.0899 181.457 76.0861 181.753C76.0845 181.872 76.0792 181.99 76.0697 182.107L75.35 183.613L72.3651 184.744L72.3642 184.744L72.3633 184.746L72.3632 184.745L71.924 182.228L71.9324 182.227C72.3306 182.159 72.7037 182.185 72.9751 182.279C72.9796 182.281 72.983 182.282 72.9876 182.284C73.0036 182.291 73.0206 182.297 73.0378 182.304C73.0389 182.305 73.0413 182.305 73.0434 182.306C73.3673 182.422 73.9053 182.754 74.4309 182.662C74.5703 182.638 74.7042 182.607 74.8307 182.57C74.8519 182.565 74.8719 182.559 74.8934 182.552C75.2152 182.434 75.5137 181.999 75.6877 181.405L75.6875 181.404C75.755 181.179 75.8031 180.931 75.8309 180.667C75.8663 180.319 75.8585 179.987 75.8138 179.691C75.8127 179.678 75.8106 179.666 75.8084 179.653Z" fill="#1D2C40"/>
</g>
<path opacity="0.499512" d="M72.4238 185.097C73.2894 184.947 73.8695 184.124 73.7196 183.258C73.5696 182.393 72.7464 181.813 71.8808 181.963C71.0152 182.113 70.435 182.936 70.585 183.801C70.735 184.667 71.5582 185.247 72.4238 185.097Z" fill="white"/>
<path opacity="0.499512" d="M70.5773 174.43L70.5733 174.431C68.256 174.834 66.6953 176.992 67.0868 179.252L67.3996 181.058C67.3996 181.058 67.3872 179.95 67.766 179.346C68.1771 178.689 67.8985 177.848 69.0414 177.65C69.7789 177.522 69.8661 177.78 71.1152 177.564L71.1162 177.564L71.1202 177.563L71.1212 177.563C72.3705 177.346 72.3657 177.074 73.1028 176.946C74.2458 176.748 74.2665 177.634 74.875 178.114C75.4349 178.556 75.7958 179.603 75.7958 179.603L75.483 177.797C75.0909 175.538 72.8956 174.03 70.5773 174.43Z" fill="#1D2C40"/>
<path opacity="0.499512" d="M75.7691 187.918L75.6748 188.051C75.0891 188.876 74.2112 189.427 73.2037 189.602C72.1854 189.776 71.1752 189.551 70.3492 188.971L70.2221 188.882C70.2703 188.841 70.3197 188.801 70.3694 188.763C70.3711 188.76 70.3733 188.761 70.3733 188.761L70.3731 188.76C70.4133 188.728 70.4524 188.696 70.4914 188.664C70.6071 188.565 70.7163 188.459 70.8157 188.347C70.8169 188.347 70.8169 188.347 70.8182 188.348C71.4448 188.789 72.2459 188.991 73.0714 188.85L73.0797 188.848C73.9049 188.705 74.5938 188.244 75.0381 187.618L75.0391 187.617C75.1225 187.663 75.2083 187.706 75.2956 187.743C75.3047 187.748 75.3132 187.752 75.3221 187.755C75.3635 187.773 75.4058 187.79 75.4476 187.806C75.4944 187.824 75.5421 187.841 75.589 187.856C75.597 187.857 75.6029 187.86 75.6092 187.862C75.6626 187.88 75.7167 187.898 75.7691 187.918Z" fill="#5630FF"/>
</g>
</g>
</g>
</g>
<mask id="mask2" mask-type="alpha" maskUnits="userSpaceOnUse" x="43" y="171" width="26" height="26">
<path d="M58.0699 195.143C63.9742 194.12 67.9045 188.35 66.8486 182.255C65.7927 176.16 60.1504 172.049 54.2462 173.071C48.342 174.094 44.4116 179.864 45.4675 185.959C46.5234 192.054 52.1657 196.165 58.0699 195.143Z" fill="white"/>
</mask>
<g mask="url(#mask2)">
<path d="M58.0699 195.143C63.9742 194.12 67.9045 188.35 66.8486 182.255C65.7927 176.16 60.1504 172.049 54.2462 173.071C48.342 174.094 44.4116 179.864 45.4675 185.959C46.5234 192.054 52.1657 196.165 58.0699 195.143Z" fill="#F1F5F7"/>
<path d="M59.8124 180.513L60.3423 183.571C60.3499 183.615 60.3564 183.659 60.3629 183.704C60.3686 183.74 60.3735 183.776 60.3775 183.813C60.3825 183.845 60.3858 183.878 60.3884 183.91C60.3913 183.933 60.393 183.957 60.3953 183.981C60.3965 183.995 60.3976 184.008 60.3984 184.023C60.4004 184.048 60.4032 184.074 60.4028 184.1C60.4071 184.149 60.4096 184.198 60.4104 184.247C60.4113 184.26 60.4116 184.271 60.4114 184.284C60.4127 184.309 60.4128 184.333 60.4129 184.359L60.4134 184.361C60.4131 184.397 60.4132 184.433 60.4129 184.469C60.412 184.519 60.4111 184.569 60.4089 184.618C60.408 184.62 60.4084 184.623 60.4081 184.624C60.4082 184.632 60.4082 184.639 60.4078 184.647C60.4069 184.649 60.4072 184.65 60.4065 184.653C60.4058 184.68 60.4043 184.706 60.4023 184.733C60.4019 184.744 60.4021 184.755 60.3999 184.767C60.3996 184.786 60.3975 184.805 60.3965 184.823C60.3954 184.834 60.3956 184.846 60.3926 184.856C60.3924 184.865 60.3911 184.875 60.3902 184.884C60.383 184.97 60.372 185.055 60.3603 185.139C60.3542 185.18 60.3485 185.219 60.3417 185.26C60.3413 185.264 60.3401 185.268 60.3397 185.272C60.3334 185.309 60.3266 185.345 60.3203 185.381C60.318 185.392 60.3157 185.403 60.3136 185.415C60.3063 185.449 60.2996 185.483 60.2919 185.518C60.283 185.56 60.2734 185.601 60.2637 185.642C60.2552 185.679 60.2454 185.716 60.2362 185.753C60.2349 185.759 60.2329 185.765 60.2316 185.771C60.2204 185.81 60.2105 185.849 60.1986 185.888C60.1877 185.928 60.1755 185.968 60.1622 186.009C60.1383 186.088 60.1104 186.169 60.0826 186.247L60.0437 186.354C59.9313 186.648 59.7981 186.929 59.6465 187.193C59.6261 187.231 59.6049 187.267 59.5824 187.303C59.5519 187.355 59.5207 187.406 59.4887 187.457C59.4604 187.501 59.4322 187.545 59.4021 187.588C59.3213 187.709 59.2373 187.825 59.15 187.936C59.1331 187.959 59.1148 187.982 59.096 188.004C59.0665 188.041 59.0369 188.078 59.0054 188.113C58.9823 188.142 58.9573 188.17 58.9322 188.198C58.8681 188.27 58.8037 188.341 58.7375 188.407C58.7107 188.436 58.6826 188.463 58.6543 188.49C58.6089 188.535 58.5626 188.579 58.5154 188.621C58.4897 188.645 58.4632 188.668 58.4359 188.69C58.3418 188.772 58.2456 188.849 58.1492 188.917C58.1259 188.935 58.1019 188.952 58.0785 188.968C58.0549 188.984 58.0297 189.001 58.004 189.018C57.9729 189.039 57.941 189.059 57.9097 189.078C57.8967 189.086 57.8843 189.094 57.8716 189.1C57.8343 189.123 57.7957 189.145 57.7579 189.165C57.7105 189.192 57.6614 189.216 57.6133 189.239C57.5801 189.255 57.5457 189.27 57.5117 189.285C57.5102 189.286 57.508 189.287 57.5051 189.288C57.471 189.302 57.4376 189.316 57.4038 189.328C57.3949 189.332 57.3859 189.335 57.3768 189.338C57.3486 189.348 57.3206 189.358 57.2923 189.366C57.252 189.379 57.2116 189.392 57.1706 189.401C57.1566 189.405 57.1434 189.408 57.1289 189.411C57.0963 189.419 57.0635 189.426 57.0315 189.431L57.0284 189.432C56.9965 189.437 56.9643 189.442 56.9319 189.445C56.9195 189.447 56.907 189.449 56.8943 189.448C56.8653 189.453 56.8347 189.455 56.8031 189.456C56.7969 189.457 56.7896 189.458 56.7832 189.458C56.7442 189.459 56.7049 189.46 56.6646 189.46C56.6307 189.46 56.5965 189.459 56.561 189.457C56.3777 189.448 56.186 189.42 55.9887 189.373C55.8202 189.332 55.6473 189.278 55.4732 189.211C55.3856 189.177 55.2975 189.141 55.2097 189.101C55.1658 189.081 55.1219 189.06 55.0779 189.039C54.9398 188.973 54.8017 188.899 54.6643 188.817C54.6262 188.793 54.5882 188.77 54.5499 188.745C54.5119 188.722 54.4737 188.698 54.4366 188.674C54.343 188.612 54.2512 188.548 54.1606 188.479C54.1254 188.453 54.0899 188.426 54.0541 188.398C53.956 188.322 53.8593 188.242 53.7661 188.158C53.7301 188.128 53.6959 188.097 53.6619 188.065C53.5343 187.949 53.411 187.825 53.2928 187.695C53.2613 187.66 53.2295 187.625 53.199 187.589C53.162 187.547 53.1257 187.503 53.0895 187.46C52.9551 187.297 52.8276 187.125 52.7115 186.946C52.6941 186.919 52.6769 186.894 52.6617 186.867C52.639 186.834 52.6181 186.799 52.5983 186.765C52.5685 186.715 52.5397 186.665 52.5119 186.615C52.484 186.565 52.4571 186.514 52.4301 186.462C52.4046 186.413 52.3801 186.363 52.3564 186.313C52.33 186.259 52.3047 186.205 52.2812 186.148C52.2792 186.143 52.2759 186.137 52.2739 186.131C52.2404 186.054 52.2087 185.976 52.179 185.896C52.1395 185.791 52.1039 185.683 52.0723 185.574C52.0609 185.539 52.0517 185.504 52.0426 185.47C52.0321 185.434 52.0226 185.398 52.0141 185.361C51.9973 185.294 51.9823 185.226 51.9684 185.159C51.9598 185.115 51.9509 185.07 51.9433 185.026L51.4134 181.968C51.0219 179.708 52.5827 177.55 54.9 177.146L54.9042 177.146C55.2239 177.09 55.5418 177.071 55.8517 177.085C56.1357 177.098 56.4138 177.139 56.6825 177.205C57.0486 177.295 57.3983 177.431 57.7225 177.61C57.9949 177.76 58.25 177.937 58.481 178.142C59.1524 178.733 59.6353 179.538 59.805 180.477C59.8082 180.488 59.8103 180.5 59.8124 180.513Z" fill="#E3E7E9"/>
<path d="M63.5918 194.766L63.5919 194.767L52.6493 196.662L52.6489 196.662C52.5444 196.059 52.546 195.461 52.6423 194.888C52.6595 194.785 52.6798 194.682 52.7036 194.58L52.7034 194.578C52.726 194.476 52.7531 194.375 52.7824 194.275C52.8986 193.872 53.0635 193.486 53.2694 193.123C53.3216 193.032 53.3751 192.943 53.4314 192.857C53.4588 192.812 53.4885 192.77 53.5181 192.726C53.5478 192.683 53.5778 192.641 53.6085 192.598C53.762 192.386 53.9315 192.187 54.1136 191.999C54.2046 191.906 54.2977 191.817 54.3952 191.73C54.4929 191.643 54.5931 191.559 54.6961 191.48C54.6979 191.477 54.6999 191.477 54.6999 191.477C54.7402 191.446 54.7792 191.414 54.818 191.38C54.9339 191.282 55.0432 191.177 55.1447 191.064C55.576 190.592 55.8719 190.006 55.9885 189.373C56.0578 188.994 56.0626 188.598 55.9932 188.198L56.7912 188.064L57.6118 187.926C57.6802 188.321 57.8151 188.688 58.0038 189.018C58.324 189.578 58.7993 190.033 59.3649 190.334C59.4489 190.381 59.5339 190.422 59.6223 190.46C59.6315 190.464 59.6393 190.468 59.649 190.472C59.6902 190.489 59.7311 190.507 59.7744 190.522C59.8211 190.54 59.8685 190.558 59.916 190.573C59.9234 190.574 59.9303 190.576 59.9362 190.579C60.0354 190.613 60.1342 190.649 60.2312 190.687C60.2774 190.704 60.3243 190.723 60.3705 190.745C60.4658 190.784 60.559 190.828 60.6513 190.874C60.6514 190.875 60.6526 190.875 60.6526 190.875L60.6532 190.874C60.7708 190.932 60.8859 190.995 60.9989 191.06C61.1125 191.126 61.2222 191.196 61.3294 191.269C62.491 192.062 63.336 193.29 63.5918 194.766Z" fill="#E3E7E9"/>
<path d="M63.5915 194.766L52.6489 196.661C52.5445 196.059 52.546 195.46 52.6424 194.888C52.6595 194.785 52.68 194.682 52.7035 194.579L52.7033 194.578C52.726 194.476 52.7532 194.375 52.7824 194.274C52.8987 193.872 53.0634 193.486 53.2693 193.123C53.3216 193.032 53.3753 192.943 53.4315 192.857C53.4588 192.812 53.4885 192.769 53.5182 192.726C53.548 192.683 53.5778 192.64 53.6087 192.598C53.7621 192.386 53.9316 192.187 54.1136 191.998C54.2048 191.905 54.2977 191.816 54.3953 191.729C54.4458 191.684 54.4966 191.64 54.5486 191.597C54.5969 191.556 54.6463 191.517 54.6959 191.478C54.6978 191.476 54.6998 191.476 54.6998 191.476L54.6997 191.476C54.7399 191.444 54.7791 191.412 54.818 191.379C54.9337 191.281 55.0428 191.175 55.1423 191.062C55.1435 191.063 55.1435 191.063 55.1447 191.064C55.7714 191.504 56.5725 191.706 57.3979 191.565L57.4062 191.564C58.2314 191.421 58.9209 190.96 59.3646 190.334L59.3656 190.332C59.449 190.379 59.5348 190.421 59.622 190.459C59.6317 190.463 59.6396 190.467 59.6487 190.471C59.69 190.489 59.7323 190.505 59.7741 190.522C59.8208 190.539 59.8686 190.556 59.9156 190.572C59.9235 190.573 59.9294 190.576 59.9357 190.578C59.989 190.595 60.0431 190.614 60.0956 190.634C60.141 190.651 60.1865 190.668 60.2309 190.686C60.2776 190.704 60.3246 190.723 60.3708 190.744C60.4655 190.783 60.5593 190.827 60.6511 190.874L60.6534 190.873C60.7705 190.931 60.8865 190.993 60.9991 191.059C61.1122 191.125 61.2225 191.195 61.3297 191.269C62.4907 192.062 63.3357 193.289 63.5915 194.766Z" fill="#17A3DC"/>
<path d="M60.3423 183.571C60.35 183.615 60.3565 183.66 60.363 183.704C60.3687 183.741 60.3736 183.776 60.3776 183.813C60.3826 183.845 60.3859 183.878 60.3885 183.91C60.3914 183.933 60.3931 183.957 60.3953 183.981C60.3966 183.995 60.3977 184.008 60.3984 184.023C60.4004 184.048 60.4032 184.074 60.4029 184.1C60.406 184.149 60.4097 184.198 60.4104 184.247C60.4114 184.26 60.4116 184.272 60.4114 184.284C60.4128 184.309 60.4128 184.334 60.413 184.359C60.414 184.396 60.4133 184.433 60.413 184.469C60.4122 184.513 60.4107 184.556 60.4091 184.599C60.4094 184.608 60.4085 184.616 60.4082 184.625C60.4082 184.632 60.4071 184.639 60.4073 184.647C60.407 184.649 60.4073 184.65 60.4065 184.653C60.4074 184.658 60.407 184.662 60.4065 184.667C60.4055 184.688 60.4045 184.71 60.4024 184.733C60.402 184.744 60.4021 184.755 60.4 184.767C60.3988 184.788 60.3974 184.808 60.3944 184.828C60.3948 184.837 60.3946 184.846 60.3927 184.856C60.3925 184.865 60.3912 184.875 60.3903 184.884C60.3831 184.97 60.3721 185.055 60.3604 185.14C60.3543 185.18 60.3485 185.219 60.3418 185.26C60.3413 185.264 60.3402 185.268 60.3397 185.272C60.3335 185.309 60.3266 185.345 60.3204 185.382C60.318 185.392 60.3158 185.403 60.3136 185.415C60.3064 185.449 60.2997 185.483 60.292 185.518C60.283 185.56 60.2734 185.601 60.2638 185.642C60.2552 185.679 60.2455 185.716 60.2363 185.753C60.235 185.759 60.233 185.765 60.2317 185.771C60.2205 185.81 60.2106 185.849 60.1987 185.888C60.1877 185.928 60.1756 185.968 60.1623 186.009C60.1384 186.089 60.1105 186.169 60.0827 186.247L60.0437 186.354C59.9313 186.648 59.7981 186.929 59.6465 187.193C59.6261 187.231 59.6049 187.267 59.5825 187.304C59.552 187.355 59.5207 187.406 59.4888 187.457C59.4605 187.501 59.4323 187.545 59.4021 187.588C59.3214 187.71 59.2373 187.825 59.1501 187.936C59.1331 187.959 59.1149 187.982 59.096 188.004C59.0666 188.041 59.037 188.078 59.0054 188.113C58.9824 188.142 58.9573 188.17 58.9322 188.198C58.8681 188.27 58.8038 188.341 58.7375 188.407C58.7108 188.436 58.6826 188.463 58.6543 188.49C58.609 188.535 58.5626 188.579 58.5155 188.621C58.4898 188.645 58.4633 188.668 58.436 188.69C58.3418 188.772 58.2457 188.849 58.1492 188.917C58.126 188.935 58.102 188.952 58.0785 188.968C58.055 188.984 58.0298 189.001 58.004 189.018C57.973 189.039 57.9411 189.059 57.9097 189.078C57.8968 189.086 57.8843 189.094 57.8717 189.1C57.8343 189.123 57.7957 189.145 57.758 189.166C57.7105 189.192 57.6615 189.216 57.6133 189.239C57.5802 189.255 57.5458 189.27 57.5118 189.285C57.5102 189.286 57.508 189.287 57.5051 189.288C57.4711 189.302 57.4377 189.316 57.4038 189.328C57.3949 189.332 57.3859 189.335 57.3768 189.338C57.3487 189.348 57.3207 189.359 57.2923 189.366C57.2521 189.379 57.2116 189.392 57.1707 189.401C57.1567 189.405 57.1434 189.408 57.129 189.411C57.0964 189.419 57.0636 189.426 57.0316 189.431L57.0285 189.432C56.9966 189.437 56.9644 189.442 56.932 189.445C56.9196 189.447 56.9071 189.449 56.8944 189.449C56.8653 189.453 56.8348 189.455 56.8032 189.456C56.797 189.457 56.7897 189.458 56.7833 189.458C56.7443 189.459 56.705 189.46 56.6647 189.46C56.6308 189.46 56.5965 189.459 56.561 189.457C56.3778 189.448 56.1861 189.42 55.9888 189.373C55.8203 189.332 55.6473 189.278 55.4732 189.211C55.3858 189.179 55.2986 189.142 55.2098 189.101C55.1659 189.081 55.122 189.06 55.0779 189.039C54.9399 188.973 54.8017 188.899 54.6643 188.817C54.6263 188.793 54.5883 188.77 54.55 188.746C54.512 188.722 54.4738 188.698 54.4366 188.674C54.3431 188.612 54.2513 188.548 54.1607 188.479C54.1254 188.454 54.09 188.426 54.0542 188.398C53.956 188.322 53.8594 188.242 53.7662 188.158C53.7302 188.128 53.696 188.097 53.6619 188.065C53.5344 187.949 53.411 187.825 53.2928 187.695C53.2613 187.66 53.2296 187.625 53.1991 187.589C53.162 187.547 53.1258 187.503 53.0895 187.46C52.9551 187.297 52.8276 187.125 52.7116 186.946C52.6942 186.919 52.677 186.894 52.6617 186.867C52.639 186.834 52.6181 186.799 52.5984 186.765C52.5686 186.716 52.5397 186.666 52.5119 186.615C52.4841 186.565 52.4572 186.514 52.4301 186.463C52.4046 186.413 52.3801 186.364 52.3564 186.313C52.3301 186.259 52.3048 186.205 52.2812 186.149C52.2792 186.143 52.276 186.137 52.274 186.131C52.2405 186.054 52.2088 185.976 52.179 185.896C52.1396 185.791 52.104 185.683 52.0724 185.574C52.061 185.539 52.0517 185.504 52.0427 185.47C52.0322 185.434 52.0227 185.398 52.0142 185.361C51.9974 185.294 51.9824 185.226 51.9685 185.159C51.9599 185.115 51.951 185.07 51.9434 185.026L52.8365 186.195L54.0735 186.486L55.4565 186.369L55.4576 186.369L56.4829 186.284L56.4891 186.283L57.448 186.202C57.448 186.202 57.4479 186.202 57.4491 186.202L59.5884 186.022L60.3423 183.571Z" fill="#1D2C40"/>
<path d="M56.2592 184.943L56.4298 185.934L56.43 185.935L56.4891 186.282L56.5363 186.555L56.6921 187.46L56.6923 187.461L56.6911 187.46L56.6901 187.461L56.6866 187.459L52.281 186.149C52.2789 186.143 52.2758 186.137 52.2737 186.131C52.2402 186.054 52.2085 185.976 52.1788 185.896C52.1393 185.791 52.1037 185.683 52.072 185.573C52.0607 185.539 52.0515 185.504 52.0424 185.47C52.0318 185.433 52.0224 185.398 52.0139 185.361C51.9971 185.294 51.9821 185.226 51.9682 185.158C51.9595 185.114 51.9507 185.07 51.9431 185.026L51.7349 183.824C51.7378 183.841 51.7418 183.858 51.7447 183.875C51.8033 184.164 51.9062 184.476 52.0546 184.787C52.1694 185.026 52.2982 185.243 52.4374 185.432L52.4375 185.433C52.8028 185.935 53.2293 186.244 53.5728 186.247C53.594 186.246 53.6159 186.244 53.637 186.243C53.7683 186.235 53.9048 186.219 54.0441 186.195C54.5702 186.104 54.9659 185.611 55.231 185.393C55.2329 185.391 55.2347 185.39 55.2367 185.389C55.2505 185.377 55.2644 185.365 55.2763 185.354C55.2799 185.35 55.2837 185.347 55.2876 185.345C55.5112 185.164 55.853 185.015 56.2509 184.945L56.2592 184.943L56.2592 184.943Z" fill="#1D2C40"/>
<path d="M60.135 182.369L60.3421 183.571C60.3944 183.872 60.4165 184.173 60.4128 184.469C60.4111 184.587 60.4059 184.705 60.3963 184.823L59.6766 186.328L56.6918 187.46L56.6908 187.46L56.69 187.461L56.6898 187.46L56.2507 184.944L56.259 184.943C56.6573 184.875 57.0304 184.9 57.3018 184.995C57.3063 184.996 57.3097 184.998 57.3143 185C57.3303 185.007 57.3473 185.013 57.3644 185.019C57.3656 185.02 57.3679 185.021 57.3701 185.021C57.6939 185.137 58.2319 185.469 58.7576 185.378C58.897 185.354 59.0309 185.322 59.1574 185.286C59.1785 185.28 59.1985 185.275 59.2201 185.268C59.5418 185.15 59.8404 184.715 60.0144 184.12L60.0142 184.119C60.0817 183.894 60.1297 183.647 60.1576 183.383C60.193 183.035 60.1851 182.703 60.1405 182.407C60.1394 182.394 60.1373 182.382 60.135 182.369Z" fill="#1D2C40"/>
<path d="M56.7505 187.813C57.6161 187.663 58.1962 186.84 58.0462 185.974C57.8963 185.108 57.073 184.528 56.2074 184.678C55.3418 184.828 54.7617 185.651 54.9117 186.517C55.0616 187.383 55.8849 187.963 56.7505 187.813Z" fill="white"/>
<path d="M54.904 177.146L54.9 177.146C52.5827 177.55 51.0219 179.708 51.4134 181.968L51.7262 183.773C51.7262 183.773 51.7138 182.666 52.0926 182.061C52.5038 181.405 52.2251 180.563 53.368 180.365C54.1055 180.237 54.1927 180.496 55.4419 180.279L55.4429 180.279L55.4469 180.279L55.4479 180.278C56.6971 180.062 56.6924 179.789 57.4294 179.662C58.5725 179.464 58.5932 180.35 59.2016 180.83C59.7615 181.271 60.1224 182.319 60.1224 182.319L59.8096 180.513C59.4175 178.253 57.2223 176.746 54.904 177.146Z" fill="#1D2C40"/>
<path d="M60.0958 190.633L60.0015 190.766C59.4158 191.591 58.5379 192.142 57.5304 192.317C56.5121 192.491 55.5019 192.266 54.6759 191.687L54.5487 191.597C54.597 191.556 54.6464 191.517 54.6961 191.478C54.6978 191.475 54.6999 191.476 54.6999 191.476L54.6997 191.475C54.74 191.443 54.7791 191.412 54.8181 191.379C54.9337 191.28 55.0429 191.174 55.1424 191.062C55.1435 191.062 55.1435 191.062 55.1448 191.063C55.7715 191.504 56.5725 191.706 57.398 191.565L57.4063 191.564C58.2316 191.421 58.9205 190.96 59.3648 190.334L59.3658 190.332C59.4492 190.379 59.535 190.421 59.6222 190.459C59.6314 190.463 59.6398 190.467 59.6487 190.47C59.6901 190.488 59.7325 190.505 59.7743 190.522C59.821 190.539 59.8688 190.556 59.9157 190.571C59.9237 190.572 59.9296 190.575 59.9359 190.577C59.9892 190.595 60.0433 190.614 60.0958 190.633Z" fill="#1FCAFF"/>
</g>
<path d="M191.577 296.167C181.132 279.094 154.311 251.074 150.689 246.709C147.068 242.344 155.307 240.439 152.892 237.536C150.478 234.632 149.67 229.19 152.447 228.109C155.223 227.028 149.097 221.098 151.873 220.017C154.65 218.936 167.124 214.762 162.06 211.606C156.997 208.449 150.982 201.164 158.966 201.926C166.931 202.687 196.036 206.793 199.766 209.822C203.495 212.851 211.417 228.357 213.559 233.926C215.719 239.497 212.247 261.952 212.674 271.377C213.12 280.803 218.309 282.644 218.309 282.644L208.06 305.798L191.577 296.167Z" fill="#6A3B2B"/>
<path d="M377.321 159.556C371.937 188.349 360.85 208.561 354.146 215.446C347.441 222.332 344.815 221.835 349.076 228.043C353.336 234.25 350.232 236.38 349.735 239.006C349.238 241.631 339.116 266.826 349.087 271.399C359.077 275.973 374.118 267.95 381.165 288.244C388.213 308.537 390.01 327.836 390.01 327.836L461.003 324.872C461.003 324.872 442.955 309.992 448.376 278.832C453.782 247.633 377.321 159.556 377.321 159.556Z" fill="#6A3B2B"/>
<path d="M389.317 186.805C373.941 182.455 356.76 172.587 366.569 163.571C376.375 154.574 367.876 142.142 378.342 144.108C388.808 146.074 382.438 136.746 390.279 138.215C398.138 139.686 398.453 123.489 402.713 129.696C406.973 135.904 417.275 124.3 419.405 127.404C421.536 130.508 428.736 121.016 433.473 124.615C438.209 128.214 442.965 131.815 448.694 130.182C454.424 128.549 459.658 129.523 459.16 132.148C458.663 134.774 463.421 138.356 468.653 139.348C473.887 140.322 471.919 150.807 474.546 151.285C477.173 151.764 482.884 150.129 484.536 155.86C486.169 161.589 497.629 158.305 496.637 163.537C495.663 168.771 494.192 176.63 496.8 177.107C499.426 177.604 498.931 180.211 497.957 185.445C496.983 190.679 503.191 186.418 502.217 191.652C501.243 196.886 500.746 199.512 503.374 199.99C506.001 200.468 507.634 206.198 507.137 208.823C506.64 211.449 502.562 218.813 505.17 219.289C507.796 219.787 508.436 230.748 503.204 229.756C497.97 228.782 497.475 231.389 499.605 234.492C501.735 237.596 500.264 245.456 497.639 244.959C495.013 244.461 496.665 250.192 494.04 249.695C491.414 249.198 492.569 257.555 484.709 256.084C476.85 254.613 478.502 260.344 473.251 259.35C468.017 258.376 465.391 257.879 464.913 260.506C464.416 263.132 463.442 268.366 458.21 267.373C452.978 266.381 448.403 276.37 446.932 284.23C445.461 292.089 410.025 257.009 409.863 243.42C409.7 229.832 412.307 230.327 410.674 224.598C409.041 218.868 402.815 223.127 403.807 217.895C404.8 212.662 403.455 190.809 389.317 186.805Z" fill="#1B313E"/>
<path d="M336.043 469.941C347.326 477.256 355.223 482.502 360.724 486.232C375.056 495.96 382.731 501.148 382.731 501.148L333.264 478.207L336.043 469.941Z" fill="#13B7A8"/>
<path d="M208.291 173.746L206.582 172.389C206.307 172.097 205.988 171.858 205.648 171.655C204.785 171.156 203.744 170.943 202.663 171.143L165.512 178.04C162.599 178.577 160.395 181.002 160.114 183.951L153.249 256.243C153.11 257.689 153.687 258.996 154.645 259.883C154.785 260.01 154.926 260.119 155.067 260.227L157.462 262.143L158.122 260.993C158.199 260.981 158.276 260.969 158.372 260.959L195.523 254.062C198.437 253.525 200.64 251.1 200.921 248.151L207.786 175.859C207.824 175.465 207.805 175.065 207.746 174.699L208.291 173.746Z" fill="#D5DCDF"/>
<path d="M155.395 257.983L162.26 185.692C162.542 182.742 164.745 180.318 167.659 179.781L204.81 172.883C207.666 172.359 210.228 174.708 209.954 177.582L203.088 249.874C202.807 252.823 200.604 255.248 197.69 255.785L160.537 262.701C157.681 263.225 155.119 260.876 155.395 257.983Z" fill="#E3E9ED"/>
<path d="M158.52 257.618L165.215 187.111L206.969 178.662L200.195 249.996L158.52 257.618Z" fill="#073155"/>
<path d="M214.251 241.366C217.086 220.216 207.791 211.935 204.464 211.636C201.137 211.337 203.065 226.289 205.711 233.916C208.337 241.56 206.868 245.42 206.868 245.42" fill="#6A3B2B"/>
<path d="M159.044 256.891L365.524 297.404C365.524 297.404 394.55 267.986 393.579 218.605C392.607 169.224 367.643 135.447 367.643 135.447L204.79 184.805L159.521 251.894L159.044 256.891Z" fill="url(#paint2_linear)"/>
<path d="M482.553 465.676C481.811 479.008 481.175 492.616 480.614 506.23C489.779 502.176 498.721 497.665 507.369 492.671C505.015 469.281 493.25 432.272 478.977 389.374C485.257 435.774 482.553 465.676 482.553 465.676Z" fill="#13B7A8"/>
<path d="M433.135 522.227L454.377 314.855C462.573 340.604 471.137 365.858 478.941 389.351C478.642 387.124 478.326 384.876 477.976 382.586C470.452 332.333 456.721 311.155 456.721 311.155C455.484 316.97 449.668 315.732 438.037 313.257C426.407 310.781 387.361 308.532 382.391 331.791C377.422 355.051 378.058 352.154 361.458 372.939C360.315 374.384 359.15 375.865 357.981 377.384C345.077 382.483 319.546 373.107 319.546 373.107C294.241 344.094 218.897 272.919 218.897 272.919C203.034 273.471 175.63 291.252 175.63 291.252C175.63 291.252 245.919 404.654 266.106 420.762C276.269 428.879 307.533 450.48 336.045 469.923C330.276 487.059 324.1 505.882 317.96 524.916C326.118 526.434 334.384 527.622 342.8 528.425C373.928 531.398 404.328 529.087 433.135 522.227Z" fill="#43C1C0"/>
<path d="M433.135 522.227C449.526 518.332 465.414 512.949 480.615 506.23C481.175 492.616 481.811 479.008 482.553 465.676C482.553 465.676 485.257 435.774 478.958 389.372C471.136 365.876 462.571 340.623 454.395 314.876L433.135 522.227Z" fill="#43C1C0"/>
<line x1="223.83" y1="148.579" x2="244.545" y2="103.962" stroke="#1FC9FF" stroke-opacity="0.3" stroke-width="2" stroke-linecap="round" stroke-linejoin="round"/>
<line x1="183.378" y1="166.724" x2="162.95" y2="136.868" stroke="#1FC9FF" stroke-opacity="0.3" stroke-width="2" stroke-linecap="round" stroke-linejoin="round"/>
<line x1="142" y1="217.175" x2="101.589" y2="202.12" stroke="#1FC9FF" stroke-opacity="0.3" stroke-width="2" stroke-linecap="round" stroke-linejoin="round"/>
<path d="M141.021 255.635L115.809 281.173" stroke="#1FC9FF" stroke-opacity="0.3" stroke-width="2" stroke-linecap="round" stroke-linejoin="round"/>
</g>
<defs>
<filter id="filter0_d" x="22.8313" y="275.88" width="82.6" height="92.1438" filterUnits="userSpaceOnUse" color-interpolation-filters="sRGB">
<feFlood flood-opacity="0" result="BackgroundImageFix"/>
<feColorMatrix in="SourceAlpha" type="matrix" values="0 0 0 0 0 0 0 0 0 0 0 0 0 0 0 0 0 0 127 0"/>
<feOffset dy="15.9063"/>
<feGaussianBlur stdDeviation="3.18127"/>
<feColorMatrix type="matrix" values="0 0 0 0 0.0810979 0 0 0 0 0.284994 0 0 0 0 0.368008 0 0 0 0.0636473 0"/>
<feBlend mode="normal" in2="BackgroundImageFix" result="effect1_dropShadow"/>
<feBlend mode="normal" in="SourceGraphic" in2="effect1_dropShadow" result="shape"/>
</filter>
<filter id="filter1_d" x="227.868" y="26.1938" width="82.6" height="92.1438" filterUnits="userSpaceOnUse" color-interpolation-filters="sRGB">
<feFlood flood-opacity="0" result="BackgroundImageFix"/>
<feColorMatrix in="SourceAlpha" type="matrix" values="0 0 0 0 0 0 0 0 0 0 0 0 0 0 0 0 0 0 127 0"/>
<feOffset dy="15.9063"/>
<feGaussianBlur stdDeviation="3.18127"/>
<feColorMatrix type="matrix" values="0 0 0 0 0.0810979 0 0 0 0 0.284994 0 0 0 0 0.368008 0 0 0 0.0636473 0"/>
<feBlend mode="normal" in2="BackgroundImageFix" result="effect1_dropShadow"/>
<feBlend mode="normal" in="SourceGraphic" in2="effect1_dropShadow" result="shape"/>
</filter>
<filter id="filter2_d" x="106.061" y="59.4651" width="82.6" height="92.1438" filterUnits="userSpaceOnUse" color-interpolation-filters="sRGB">
<feFlood flood-opacity="0" result="BackgroundImageFix"/>
<feColorMatrix in="SourceAlpha" type="matrix" values="0 0 0 0 0 0 0 0 0 0 0 0 0 0 0 0 0 0 127 0"/>
<feOffset dy="15.9063"/>
<feGaussianBlur stdDeviation="3.18127"/>
<feColorMatrix type="matrix" values="0 0 0 0 0.0810979 0 0 0 0 0.284994 0 0 0 0 0.368008 0 0 0 0.0636473 0"/>
<feBlend mode="normal" in2="BackgroundImageFix" result="effect1_dropShadow"/>
<feBlend mode="normal" in="SourceGraphic" in2="effect1_dropShadow" result="shape"/>
</filter>
<filter id="filter3_d" x="22.9085" y="147.708" width="82.6" height="92.1438" filterUnits="userSpaceOnUse" color-interpolation-filters="sRGB">
<feFlood flood-opacity="0" result="BackgroundImageFix"/>
<feColorMatrix in="SourceAlpha" type="matrix" values="0 0 0 0 0 0 0 0 0 0 0 0 0 0 0 0 0 0 127 0"/>
<feOffset dy="15.9063"/>
<feGaussianBlur stdDeviation="3.18127"/>
<feColorMatrix type="matrix" values="0 0 0 0 0.0810979 0 0 0 0 0.284994 0 0 0 0 0.368008 0 0 0 0.0636473 0"/>
<feBlend mode="normal" in2="BackgroundImageFix" result="effect1_dropShadow"/>
<feBlend mode="normal" in="SourceGraphic" in2="effect1_dropShadow" result="shape"/>
</filter>
<linearGradient id="paint0_linear" x1="50.2773" y1="135.664" x2="360.032" y2="380.87" gradientUnits="userSpaceOnUse">
<stop offset="0.016626" stop-color="#1FC9FF"/>
<stop offset="1" stop-color="#1FC9FF" stop-opacity="0"/>
</linearGradient>
<linearGradient id="paint1_linear" x1="285.653" y1="60.4018" x2="250.401" y2="66.509" gradientUnits="userSpaceOnUse">
<stop stop-color="white" stop-opacity="0.378087"/>
<stop offset="1" stop-color="white" stop-opacity="0"/>
</linearGradient>
<linearGradient id="paint2_linear" x1="164.707" y1="197.26" x2="394.347" y2="219.065" gradientUnits="userSpaceOnUse">
<stop stop-color="#F1FBFF" stop-opacity="0.38"/>
<stop offset="1" stop-color="#1FC9FF" stop-opacity="0.01"/>
</linearGradient>
</defs>
</svg>
